<svg xmlns="http://www.w3.org/2000/svg" width="24" height="24" viewBox="0 0 24 24">
    <g fill="#273142" fill-rule="nonzero">
        <path d="M21 4.143h-2.813V3h-1.125v1.143H14.42V3h-1.125v1.143H10.65V3H9.525v1.143H6.937V3H5.813v1.143H3V19h18V4.143zm-1.125 13.714H4.125V8.714h15.75v9.143zm0-10.286H4.125V5.286h1.688v1.143h1.125V5.286H9.58v1.143h1.125V5.286h2.644v1.143h1.125V5.286h2.588v1.143h1.125V5.286h1.687V7.57z"/>
        <path d="M3 20h18v1H3v-1zm10-10h1v1h-1v-1zm2 0h1v1h-1v-1zm2 0h1v1h-1v-1zm-4 3h1v1h-1v-1zm2 0h1v1h-1v-1zm2 0h1v1h-1v-1zM6 13h1v1H6v-1zm2 0h1v1H8v-1zm2 0h1v1h-1v-1zm3 2h1v1h-1v-1zm-7 0h1v1H6v-1zm2 0h1v1H8v-1zm2 0h1v1h-1v-1z"/>
    </g>
</svg>
