<svg xmlns="http://www.w3.org/2000/svg" width="24" height="24" viewBox="0 0 24 24">
    <g fill="#273142" fill-rule="nonzero">
        <path d="M12 19.625a.31.31 0 0 1-.198-.07l-2.635-2.157a2.49 2.49 0 0 1-.917-1.935V2.313a.312.312 0 1 1 .625 0v13.15c0 .565.25 1.094.688 1.452L12 18.909l2.437-1.994c.437-.358.688-.887.688-1.452V2.313a.312.312 0 1 1 .625 0v13.15a2.49 2.49 0 0 1-.917 1.935l-2.635 2.156a.31.31 0 0 1-.198.071z"/>
        <path d="M15.762 9a.317.317 0 0 1-.088-.012L8.151 6.8a.313.313 0 0 1 .175-.6l7.523 2.187a.313.313 0 0 1-.087.613zM15.762 11.5a.317.317 0 0 1-.088-.012L8.151 9.3a.313.313 0 0 1 .175-.6l7.523 2.187a.313.313 0 0 1-.087.613zM15.762 14a.317.317 0 0 1-.088-.012L8.151 11.8a.313.313 0 0 1 .175-.6l7.523 2.187a.313.313 0 0 1-.087.613zM15.762 16.5a.317.317 0 0 1-.088-.012L8.151 14.3a.313.313 0 0 1 .175-.6l7.523 2.187a.313.313 0 0 1-.087.613z"/>
        <path d="M11.996 21.5c-.323 0-.645-.1-.92-.302l-2.999-2.432a3.76 3.76 0 0 1-1.314-2.175l-.281-1.402a.314.314 0 0 0-.307-.252H2.313a.312.312 0 1 1 0-.624h3.862a.94.94 0 0 1 .92.753l.28 1.402a3.133 3.133 0 0 0 1.096 1.813l2.987 2.422a.932.932 0 0 0 1.097-.01l2.974-2.412a3.133 3.133 0 0 0 1.095-1.813l.281-1.402a.94.94 0 0 1 .92-.754h3.862a.312.312 0 1 1 0 .625h-3.862a.314.314 0 0 0-.307.252l-.28 1.402a3.759 3.759 0 0 1-1.315 2.175l-2.987 2.423a1.588 1.588 0 0 1-.94.311z"/>
        <path d="M5.438 16.188a.323.323 0 0 1-.222-.091.328.328 0 0 1-.091-.222c0-.081.034-.163.09-.222a.327.327 0 0 1 .444 0c.057.06.091.14.091.222a.33.33 0 0 1-.09.222.33.33 0 0 1-.222.09zM5.438 17.438a.323.323 0 0 1-.222-.091.328.328 0 0 1-.091-.222c0-.081.034-.163.09-.222a.327.327 0 0 1 .444 0c.057.06.091.14.091.222a.33.33 0 0 1-.09.222.33.33 0 0 1-.222.09zM5.438 18.688a.323.323 0 0 1-.222-.091.328.328 0 0 1-.091-.222c0-.081.034-.163.09-.222a.327.327 0 0 1 .444 0c.057.06.091.14.091.222a.33.33 0 0 1-.09.222.33.33 0 0 1-.222.09zM5.438 19.938a.329.329 0 0 1-.222-.091.328.328 0 0 1-.091-.222c0-.081.034-.163.09-.222a.327.327 0 0 1 .444 0c.057.06.091.14.091.222a.33.33 0 0 1-.09.222.33.33 0 0 1-.222.09zM6.688 19.938a.314.314 0 0 1-.222-.534.327.327 0 0 1 .443 0c.057.058.091.14.091.221a.33.33 0 0 1-.09.222.324.324 0 0 1-.223.09zM4.188 16.188a.329.329 0 0 1-.222-.091.322.322 0 0 1-.091-.222c0-.081.034-.163.09-.222a.327.327 0 0 1 .444 0c.057.06.091.14.091.222a.323.323 0 0 1-.09.222.33.33 0 0 1-.222.09zM4.188 17.438a.329.329 0 0 1-.222-.091.328.328 0 0 1-.091-.222c0-.081.034-.163.09-.222a.327.327 0 0 1 .444 0c.057.06.091.14.091.222a.33.33 0 0 1-.09.222.33.33 0 0 1-.222.09zM4.188 18.688a.329.329 0 0 1-.222-.091.328.328 0 0 1-.091-.222c0-.081.034-.163.09-.222a.327.327 0 0 1 .444 0c.057.06.091.14.091.222a.33.33 0 0 1-.09.222.33.33 0 0 1-.222.09zM4.188 19.938a.323.323 0 0 1-.222-.091.328.328 0 0 1-.091-.222c0-.081.034-.163.09-.222a.327.327 0 0 1 .444 0c.057.06.091.14.091.222a.33.33 0 0 1-.09.222.324.324 0 0 1-.222.09zM2.938 16.188a.329.329 0 0 1-.222-.091.328.328 0 0 1-.091-.222c0-.081.034-.163.09-.222a.327.327 0 0 1 .444 0c.057.06.091.14.091.222a.33.33 0 0 1-.09.222.33.33 0 0 1-.222.09zM2.938 18.688a.329.329 0 0 1-.222-.091.328.328 0 0 1-.091-.222c0-.081.034-.163.09-.222a.327.327 0 0 1 .444 0c.057.06.091.14.091.222a.33.33 0 0 1-.09.222.33.33 0 0 1-.222.09zM5.438 21.188a.323.323 0 0 1-.222-.091.328.328 0 0 1-.091-.222c0-.081.034-.163.09-.222a.327.327 0 0 1 .444 0c.057.06.091.14.091.222a.33.33 0 0 1-.09.222.33.33 0 0 1-.222.09zM6.688 21.188a.323.323 0 0 1-.222-.091.328.328 0 0 1-.091-.222c0-.081.034-.163.09-.222a.327.327 0 0 1 .444 0c.057.06.091.14.091.222a.33.33 0 0 1-.09.222.33.33 0 0 1-.223.09zM4.188 21.188a.323.323 0 0 1-.222-.091.328.328 0 0 1-.091-.222c0-.081.034-.163.09-.222a.327.327 0 0 1 .444 0c.057.06.091.14.091.222a.33.33 0 0 1-.09.222.324.324 0 0 1-.222.09zM2.938 21.188a.329.329 0 0 1-.222-.091.328.328 0 0 1-.091-.222c0-.081.034-.163.09-.222a.327.327 0 0 1 .444 0c.057.06.091.14.091.222a.33.33 0 0 1-.09.222.33.33 0 0 1-.222.09zM7.938 21.188a.329.329 0 0 1-.222-.091.328.328 0 0 1-.091-.222c0-.081.034-.163.09-.222a.327.327 0 0 1 .444 0c.057.06.091.14.091.222a.33.33 0 0 1-.09.222.33.33 0 0 1-.223.09zM18.563 16.188a.323.323 0 0 1-.222-.091.322.322 0 0 1-.091-.222c0-.081.034-.163.09-.222a.327.327 0 0 1 .444 0c.057.06.091.14.091.222a.33.33 0 0 1-.09.222.33.33 0 0 1-.223.09zM18.563 17.438a.323.323 0 0 1-.222-.091.328.328 0 0 1-.091-.222c0-.081.034-.163.09-.222a.327.327 0 0 1 .444 0c.057.06.091.14.091.222a.33.33 0 0 1-.09.222.33.33 0 0 1-.223.09zM18.563 18.688a.323.323 0 0 1-.222-.091.328.328 0 0 1-.091-.222c0-.081.034-.163.09-.222a.327.327 0 0 1 .444 0c.057.06.091.14.091.222a.33.33 0 0 1-.09.222.33.33 0 0 1-.223.09zM18.563 19.938a.312.312 0 0 1-.222-.094.308.308 0 0 1-.091-.219c0-.081.034-.163.09-.222a.327.327 0 0 1 .444 0c.057.06.091.14.091.222a.33.33 0 0 1-.09.222.33.33 0 0 1-.223.09zM17.313 19.938a.329.329 0 0 1-.222-.091.322.322 0 0 1-.091-.222c0-.081.034-.163.09-.222a.327.327 0 0 1 .444 0c.057.06.091.14.091.222a.33.33 0 0 1-.09.222.33.33 0 0 1-.223.09zM19.813 16.188a.323.323 0 0 1-.222-.091.328.328 0 0 1-.091-.222c0-.081.034-.163.09-.222a.327.327 0 0 1 .444 0c.057.06.091.14.091.222a.33.33 0 0 1-.09.222.33.33 0 0 1-.223.09zM19.813 17.438a.323.323 0 0 1-.222-.091.328.328 0 0 1-.091-.222c0-.081.034-.163.09-.222a.327.327 0 0 1 .444 0c.057.06.091.14.091.222a.33.33 0 0 1-.09.222.33.33 0 0 1-.223.09zM19.813 18.688a.329.329 0 0 1-.222-.091.328.328 0 0 1-.091-.222c0-.081.034-.163.09-.222a.327.327 0 0 1 .444 0c.057.06.091.14.091.222a.33.33 0 0 1-.09.222.33.33 0 0 1-.223.09zM19.813 19.938a.323.323 0 0 1-.222-.091.328.328 0 0 1-.091-.222c0-.081.034-.163.09-.222a.327.327 0 0 1 .444 0c.057.06.091.14.091.222a.33.33 0 0 1-.09.222.33.33 0 0 1-.223.09zM21.063 16.188a.329.329 0 0 1-.222-.091.316.316 0 0 1 0-.444.327.327 0 0 1 .443 0c.057.06.091.14.091.222a.33.33 0 0 1-.09.222.33.33 0 0 1-.223.09zM21.063 18.688a.329.329 0 0 1-.222-.091.316.316 0 0 1 0-.444.327.327 0 0 1 .443 0c.057.06.091.14.091.222a.33.33 0 0 1-.09.222.33.33 0 0 1-.223.09zM18.563 21.188a.323.323 0 0 1-.222-.091.328.328 0 0 1-.091-.222c0-.081.034-.163.09-.222a.327.327 0 0 1 .444 0c.057.06.091.14.091.222a.33.33 0 0 1-.09.222.33.33 0 0 1-.223.09zM17.313 21.188a.329.329 0 0 1-.222-.091.322.322 0 0 1-.091-.222c0-.084.034-.163.09-.222a.33.33 0 0 1 .444 0c.057.06.091.14.091.222a.33.33 0 0 1-.09.222.33.33 0 0 1-.223.09zM19.813 21.188a.329.329 0 0 1-.222-.091.328.328 0 0 1-.091-.222c0-.081.034-.163.09-.222a.327.327 0 0 1 .444 0c.057.06.091.14.091.222a.33.33 0 0 1-.09.222.33.33 0 0 1-.223.09zM21.063 21.188a.329.329 0 0 1-.222-.091.316.316 0 0 1 0-.444.327.327 0 0 1 .443 0c.057.06.091.14.091.222a.33.33 0 0 1-.09.222.33.33 0 0 1-.223.09zM16.063 21.188a.323.323 0 0 1-.222-.091.328.328 0 0 1-.091-.222c0-.084.034-.163.09-.222a.327.327 0 0 1 .444 0c.057.06.091.138.091.222a.33.33 0 0 1-.09.222.324.324 0 0 1-.223.09zM14.188 6.5a.312.312 0 0 1-.313-.313V5.25a.312.312 0 1 1 .625 0v.938c0 .172-.14.312-.313.312zM14.188 4.625a.315.315 0 0 1-.222-.09.328.328 0 0 1-.091-.222c0-.085.034-.163.09-.222a.327.327 0 0 1 .444 0 .315.315 0 0 1 0 .444c-.06.059-.14.09-.222.09z"/>
    </g>
</svg>
