<svg xmlns="http://www.w3.org/2000/svg" width="24" height="24" viewBox="0 0 24 24">
    <g fill="#273142" fill-rule="evenodd">
        <path d="M9.093 12.833a2.086 2.086 0 0 0-2.084 2.084c0 1.149.935 2.083 2.084 2.083a2.086 2.086 0 0 0 2.083-2.083c0-1.15-.935-2.084-2.083-2.084m0 5a2.92 2.92 0 0 1-2.917-2.916A2.92 2.92 0 0 1 9.093 12a2.92 2.92 0 0 1 2.916 2.917 2.92 2.92 0 0 1-2.916 2.916M17.843 5.333a.834.834 0 1 0 .001 1.669.834.834 0 0 0-.001-1.669m0 2.5c-.92 0-1.667-.747-1.667-1.666 0-.92.748-1.667 1.667-1.667s1.666.748 1.666 1.667-.747 1.666-1.666 1.666"/>
        <path d="M7.902 21.167h2.5V20.07c0-.187.123-.35.303-.4.737-.212 1.221-.557 1.763-1.046a.416.416 0 0 1 .49-.05l.937.548 1.243-2.163-.953-.548a.417.417 0 0 1-.2-.448 5.051 5.051 0 0 0-.005-2.092.417.417 0 0 1 .2-.448l.95-.548-1.249-2.162-.923.545a.413.413 0 0 1-.49-.049c-.542-.489-1.025-.834-1.763-1.043a.418.418 0 0 1-.303-.402V8.667h-2.5v1.097c0 .187-.123.35-.302.402-.682.192-1.227.505-1.823 1.043a.418.418 0 0 1-.486.053l-.971-.555-1.258 2.169.947.547c.156.09.236.271.198.448a5.014 5.014 0 0 0-.003 2.092.417.417 0 0 1-.199.447l-.95.548 1.252 2.17.986-.557a.417.417 0 0 1 .484.053c.594.538 1.14.85 1.823 1.045.179.051.302.214.302.401v1.097zM10.82 22H7.485a.417.417 0 0 1-.416-.417v-1.208a5.108 5.108 0 0 1-1.622-.934l-1.09.616a.417.417 0 0 1-.566-.155l-1.666-2.887a.417.417 0 0 1 .152-.57l1.057-.61a5.768 5.768 0 0 1 .003-1.838l-1.053-.61a.422.422 0 0 1-.194-.253.425.425 0 0 1 .042-.316L3.806 9.93a.42.42 0 0 1 .568-.154l1.074.615c.52-.431 1.037-.73 1.62-.933V8.25c0-.23.187-.417.417-.417h3.334c.23 0 .416.187.416.417v1.21c.624.22 1.096.535 1.56.927l1.025-.606a.414.414 0 0 1 .573.15l1.667 2.887c.115.2.046.455-.153.57l-1.055.61a5.817 5.817 0 0 1 .003 1.838l1.059.609c.2.115.268.37.153.57L14.41 19.9a.419.419 0 0 1-.572.152l-1.04-.608c-.465.392-.938.707-1.562.93v1.208c0 .23-.186.417-.416.417zM17.485 9.5h.834v-.54c0-.18.117-.342.29-.396a2.57 2.57 0 0 0 .979-.582.417.417 0 0 1 .498-.057l.45.266.41-.718-.472-.27a.418.418 0 0 1-.198-.458 2.507 2.507 0 0 0-.003-1.157.416.416 0 0 1 .197-.456l.468-.27-.414-.717-.436.262a.415.415 0 0 1-.5-.055 2.56 2.56 0 0 0-.98-.583.417.417 0 0 1-.29-.397v-.539h-.833v.54a.416.416 0 0 1-.29.397c-.405.127-.782.34-1.037.582a.417.417 0 0 1-.493.06l-.486-.276-.424.727.465.269c.16.091.239.278.196.457a2.465 2.465 0 0 0-.071.578c0 .19.022.385.069.578a.417.417 0 0 1-.198.458l-.469.27.42.727.5-.28a.42.42 0 0 1 .49.062c.252.239.64.456 1.038.582.173.054.29.216.29.397V9.5zm1.25.833H17.07a.417.417 0 0 1-.417-.416v-.664a3.764 3.764 0 0 1-.83-.465l-.607.34c-.2.109-.45.041-.565-.156l-.833-1.444a.416.416 0 0 1 .153-.57l.574-.33a3.154 3.154 0 0 1 .003-.924l-.57-.33a.417.417 0 0 1-.152-.57l.84-1.444a.413.413 0 0 1 .566-.152l.594.336c.24-.18.525-.34.827-.463v-.664c0-.23.187-.417.417-.417h1.666c.23 0 .417.187.417.417v.666c.272.116.53.27.766.455l.542-.325a.414.414 0 0 1 .575.149l.833 1.443c.115.2.047.454-.153.57l-.573.33a3.232 3.232 0 0 1 .003.923l.576.33c.2.115.269.37.155.569L21.05 8.97a.419.419 0 0 1-.255.197.43.43 0 0 1-.319-.044l-.556-.329a3.42 3.42 0 0 1-.768.457v.666c0 .23-.187.416-.417.416z"/>
    </g>
</svg>
