<svg xmlns="http://www.w3.org/2000/svg" width="24" height="24" viewBox="0 0 24 24">
    <g fill="#273142" fill-rule="evenodd">
        <path d="M12 15.25a.91.91 0 0 0-.9.917.91.91 0 0 0 .9.916c.496 0 .9-.41.9-.916a.91.91 0 0 0-.9-.917m.913-.663l4.178-4.254a.445.445 0 0 1 .637 0 .465.465 0 0 1 0 .649l-4.178 4.254c.159.273.25.591.25.93C13.8 17.179 12.993 18 12 18s-1.8-.822-1.8-1.833c0-1.011.807-1.834 1.8-1.834.333 0 .645.093.913.254zM5.25 17.083h-1.8a.454.454 0 0 1-.45-.458c0-.253.202-.458.45-.458h1.8c.248 0 .45.205.45.458a.454.454 0 0 1-.45.458zm15.3.001h-1.8a.454.454 0 0 1-.45-.459c0-.253.202-.458.45-.458h1.8c.248 0 .45.206.45.459a.454.454 0 0 1-.45.458zm-2.314-3.09a.45.45 0 0 1-.416-.283.462.462 0 0 1 .244-.599l1.662-.701a.45.45 0 0 1 .589.248.462.462 0 0 1-.244.599l-1.663.701a.437.437 0 0 1-.172.035zm-3.653-3.72a.437.437 0 0 1-.172-.035.462.462 0 0 1-.244-.599l.689-1.694a.446.446 0 0 1 .588-.248.463.463 0 0 1 .243.6L15 9.99a.45.45 0 0 1-.416.284zM12 9.75a.454.454 0 0 1-.45-.458V7.458c0-.253.202-.458.45-.458s.45.205.45.458v1.834a.454.454 0 0 1-.45.458zm-2.583.524A.45.45 0 0 1 9 9.99l-.688-1.693a.463.463 0 0 1 .244-.6.449.449 0 0 1 .587.25l.689 1.693a.462.462 0 0 1-.244.599.437.437 0 0 1-.172.035zm-2.19 1.49a.448.448 0 0 1-.32-.134l-1.271-1.298a.466.466 0 0 1 0-.648.445.445 0 0 1 .637 0l1.272 1.298a.464.464 0 0 1-.001.648.444.444 0 0 1-.318.134zm-1.463 2.23a.437.437 0 0 1-.172-.035l-1.663-.702a.46.46 0 0 1-.243-.599.447.447 0 0 1 .587-.248l1.663.702a.46.46 0 0 1-.172.882z"/>
        <path d="M1.917 20.059h20.166v-3.765c0-5.708-4.523-10.353-10.083-10.353-5.56 0-10.083 4.645-10.083 10.353v3.765zM1.458 21A.465.465 0 0 1 1 20.53v-4.236C1 10.066 5.934 5 12 5s11 5.066 11 11.294v4.235c0 .26-.205.471-.458.471H1.458z"/>
    </g>
</svg>
